IKResults-ET3
version=1
nRows=9
nColumns=24
inDegrees=yes

Units are S.I. units (second, meters, Newtons, ...)
If the header above contains a line with 'inDegrees', this indicates whether rotational values are in degrees (yes) or radians (no).

endheader
time	pelvis_tilt	pelvis_list	pelvis_rotation	pelvis_tx	pelvis_ty	pelvis_tz	hip_flexion_r	hip_adduction_r	hip_rotation_r	knee_angle_r	ankle_angle_r	subtalar_angle_r	mtp_angle_r	hip_flexion_l	hip_adduction_l	hip_rotation_l	knee_angle_l	ankle_angle_l	subtalar_angle_l	mtp_angle_l	lumbar_extension	lumbar_bending	lumbar_rotation
      3.22000000	      3.31050880	     -9.12322320	    177.65580221	      2.80488476	      0.99587137	     -0.14134277	     19.38188872	    -11.39858416	      1.52202321	    -66.77586003	      1.38421147	     -5.30439149	      0.00000000	     14.72063290	     13.17647808	      3.98505252	    -15.38510774	      9.70459427	     -0.64344163	      0.00000000	    -13.18722885	    -11.36498875	      3.34204743
      3.23000000	      2.91339620	     -8.85531355	    177.81038105	      2.79128315	      0.99827922	     -0.14080238	     20.65357106	    -11.00347590	      1.38089916	    -66.32209296	      3.06425804	     -5.62795845	      0.00000000	     12.96339960	     13.00404514	      4.56397434	    -14.67194665	     10.17757224	     -0.61194197	      0.00000000	    -13.55418958	    -10.89317963	      3.24818900
      3.24000000	      2.58421936	     -8.68216544	    177.96155500	      2.77826783	      1.00018869	     -0.14015337	     22.09360482	    -10.75579646	      1.23213560	    -65.78893189	      5.39307214	     -4.37754780	      0.00000000	     11.20961566	     12.87335981	      4.58787838	    -13.69771255	     10.52995378	      0.28677083	      0.00000000	    -14.15279953	    -10.54913541	      2.82478695
      3.25000000	      2.07427724	     -8.35649288	    178.28285753	      2.76467404	      1.00226136	     -0.13934125	     23.12242018	    -10.34473351	      0.95683718	    -64.79018254	      6.23004157	     -4.04943537	      0.00000000	      9.32181096	     12.70398146	      5.45138794	    -12.97316016	     10.90481588	      0.05941324	      0.00000000	    -14.75322574	     -9.92494338	      2.62719988
      3.26000000	      1.77292475	     -8.23311939	    178.47543089	      2.75209313	      1.00332029	     -0.13856840	     24.54429301	    -10.10853821	      0.92829365	    -63.79382679	      7.97531208	     -2.13280348	      0.00000000	      7.79670246	     12.68343778	      5.82720173	    -12.30953370	     11.14851353	      0.07231576	      0.00000000	    -15.30544935	     -9.66628731	      2.13841361
      3.27000000	      1.41595606	     -7.90472298	    178.80461184	      2.73917122	      1.00449844	     -0.13794972	     25.55428018	     -9.69877651	      0.68207988	    -62.20082874	      8.64234104	     -0.53670078	      0.00000000	      6.21960845	     12.42196240	      6.19101211	    -11.74558059	     11.61209007	      0.33293203	      0.00000000	    -15.83087804	     -9.14791616	      1.69867191
      3.28000000	      1.03602723	     -7.65569784	    179.15382415	      2.72633822	      1.00531071	     -0.13715011	     26.53615367	     -9.40036844	      0.46056529	    -60.43398671	      9.65636416	      0.93874273	      0.00000000	      4.70565761	     12.24662891	      6.54763519	    -11.33829741	     12.11015829	      0.64131492	      0.00000000	    -16.44328061	     -8.67231612	      1.29471137
      3.29000000	      0.65607124	     -7.40133264	    179.56635928	      2.71356801	      1.00589575	     -0.13642544	     27.37240055	     -9.10223770	      0.19990842	    -58.41408306	     10.46157947	      2.28046323	      0.00000000	      3.31275074	     12.02603151	      6.81207579	    -11.17451447	     12.67679454	      0.95998525	      0.00000000	    -17.04121930	     -8.17732658	      0.83007329
      3.30000000	      0.27871862	     -7.15873144	    180.08835615	      2.70079888	      1.00628355	     -0.13582825	     28.09952310	     -8.84418878	     -0.15986810	    -56.19181638	     11.21106579	      3.32956032	      0.00000000	      1.73176610	     11.72762775	      6.69400598	    -10.63171581	     13.27111294	      2.11548573	      0.00000000	    -17.69841392	     -7.73532451	      0.28270686
